<svg xmlns="http://www.w3.org/2000/svg" viewBox="0 0 27.9 31.42"><defs><style>.cls-1{fill:#4d4d4f;}</style></defs><g id="Layer_2" data-name="Layer 2"><g id="OBJECTS"><path class="cls-1" d="M24.69,0H3.21A3.21,3.21,0,0,0,0,3.21V28.94a2.45,2.45,0,0,0,1.44,2.25,2.5,2.5,0,0,0,1,.23,2.45,2.45,0,0,0,1.6-.6L14,22.36l9.87,8.46a2.45,2.45,0,0,0,1.6.6,2.5,2.5,0,0,0,1-.23,2.45,2.45,0,0,0,1.44-2.25V3.21A3.21,3.21,0,0,0,24.69,0ZM2.6,3.21a.62.62,0,0,1,.61-.61H24.69a.61.61,0,0,1,.61.61V28.67l-10.5-9a1.32,1.32,0,0,0-1.7,0l-10.5,9Z"/></g></g></svg>