<svg xmlns="http://www.w3.org/2000/svg" viewBox="0 0 35.08 30.82"><defs><style>.cls-1{fill:#4d4d4f;}</style></defs><g id="Layer_2" data-name="Layer 2"><g id="OBJECTS"><path class="cls-1" d="M20.14,1.92A2.58,2.58,0,0,1,22,2.68l1.47,1.48a6.85,6.85,0,0,0,4.87,2h.58a4.26,4.26,0,0,1,4.26,4.25V24.65a4.23,4.23,0,0,1-4.25,4.25H6.18a4.25,4.25,0,0,1-4.25-4.25V10.44A4.27,4.27,0,0,1,6.17,6.18h.59a6.83,6.83,0,0,0,4.86-2l1.49-1.49a2.57,2.57,0,0,1,1.83-.76h5.2m0-1.42h-5.2A4,4,0,0,0,12.1,1.67L10.62,3.16a5.46,5.46,0,0,1-3.86,1.6H6.17A5.67,5.67,0,0,0,.5,10.44V24.65a5.67,5.67,0,0,0,5.67,5.67H28.91a5.67,5.67,0,0,0,5.67-5.67V10.43A5.67,5.67,0,0,0,28.9,4.76h-.58a5.47,5.47,0,0,1-3.86-1.6L23,1.68A4,4,0,0,0,20.14.5Z"/><path class="cls-1" d="M35.08,10.43A6.18,6.18,0,0,0,28.9,4.26h-.58A5,5,0,0,1,24.81,2.8L23.33,1.33A4.45,4.45,0,0,0,20.14,0h-5.2a4.48,4.48,0,0,0-3.19,1.32L10.26,2.81A4.94,4.94,0,0,1,6.75,4.26H6.17A6.18,6.18,0,0,0,0,10.44V24.65a6.19,6.19,0,0,0,6.18,6.17H28.91a6.16,6.16,0,0,0,6.17-6.17ZM31.56,27.3a3.72,3.72,0,0,1-2.65,1.1H6.18a3.75,3.75,0,0,1-3.75-3.75V10.44A3.76,3.76,0,0,1,6.17,6.68h.58A7.33,7.33,0,0,0,12,4.52L13.46,3a2.09,2.09,0,0,1,1.48-.61h5.2A2.09,2.09,0,0,1,21.62,3L23.1,4.51a7.31,7.31,0,0,0,5.22,2.17h.58a3.76,3.76,0,0,1,3.76,3.75V24.65A3.72,3.72,0,0,1,31.56,27.3Z"/><path class="cls-1" d="M17.54,7.81a9,9,0,1,0,9,9A9,9,0,0,0,17.54,7.81Zm0,15.63a6.61,6.61,0,1,1,6.6-6.6A6.61,6.61,0,0,1,17.54,23.44Z"/><path class="cls-1" d="M17.54,9.73a7.11,7.11,0,1,1-7.1,7.11,7.11,7.11,0,0,1,7.1-7.11m0-1.42a8.53,8.53,0,1,0,8.52,8.53,8.53,8.53,0,0,0-8.52-8.53Z"/></g></g></svg>