<svg xmlns="http://www.w3.org/2000/svg" viewBox="0 0 31.78 31.94"><defs><style>.cls-1{fill:#4d4d4f;}</style></defs><g id="Layer_2" data-name="Layer 2"><g id="OBJECTS"><path class="cls-1" d="M29.9,24a1.44,1.44,0,0,1,.17-.93A15.87,15.87,0,0,0,18.94.29,16.9,16.9,0,0,0,15.86,0,15.89,15.89,0,0,0,12.6,31.44a16.53,16.53,0,0,0,3.28.34,15.87,15.87,0,0,0,6-1.2,1.68,1.68,0,0,1,.64-.14,1.09,1.09,0,0,1,.36.06l4.31,1.32a2.86,2.86,0,0,0,.82.12,2.79,2.79,0,0,0,2.73-3.3ZM13.16,28.7A13.09,13.09,0,0,1,15.87,2.8,13.86,13.86,0,0,1,18.43,3a13.07,13.07,0,0,1,9.14,18.74,4.24,4.24,0,0,0-.42,2.71l.9,4.65-4.31-1.32a4.28,4.28,0,0,0-1.19-.17,4.45,4.45,0,0,0-1.7.34,12.82,12.82,0,0,1-5,1A14,14,0,0,1,13.16,28.7Z"/></g></g></svg>