<svg xmlns="http://www.w3.org/2000/svg" viewBox="0 0 29.85 30"><defs><style>.cls-1{fill:#333;}</style></defs><g id="Layer_2" data-name="Layer 2"><g id="OBJECTS"><path class="cls-1" d="M28.08,22.52a1.41,1.41,0,0,1,.16-.88A14.9,14.9,0,0,0,17.79.27,15.7,15.7,0,0,0,14.9,0a14.93,14.93,0,0,0-3.07,29.53,15.33,15.33,0,0,0,3.08.31,14.66,14.66,0,0,0,5.67-1.12,1.71,1.71,0,0,1,.6-.13,1.34,1.34,0,0,1,.35.05l4,1.24a2.53,2.53,0,0,0,.77.12,2.61,2.61,0,0,0,1.74-.67,2.58,2.58,0,0,0,.83-2.43ZM12.29,27.31a12.66,12.66,0,0,1,2.62-25,12.92,12.92,0,0,1,2.47.24,12.63,12.63,0,0,1,8.84,18.11,4.14,4.14,0,0,0-.41,2.63l.87,4.5-4.16-1.28a4.05,4.05,0,0,0-1.15-.17,4.2,4.2,0,0,0-1.65.34,12.58,12.58,0,0,1-4.81.95A13,13,0,0,1,12.29,27.31Z"/></g></g></svg>