<svg xmlns="http://www.w3.org/2000/svg" viewBox="0 0 37.44 32.33"><defs><style>.cls-1{fill:#f05161;}</style></defs><g id="Layer_2" data-name="Layer 2"><g id="OBJECTS"><path class="cls-1" d="M33.54,3.05a11,11,0,0,0-7.63-3,12,12,0,0,0-4.37.85A8.21,8.21,0,0,0,18.72,2.8,8.13,8.13,0,0,0,15.91.85,12,12,0,0,0,11.53,0,11.17,11.17,0,0,0,3.9,3.05,12.48,12.48,0,0,0,.59,15.89a11.72,11.72,0,0,0,3.87,5.57l12.8,10.36a2.38,2.38,0,0,0,1.46.51,2.35,2.35,0,0,0,1.47-.52L33,21.46a11.9,11.9,0,0,0,3.87-5.57A12.49,12.49,0,0,0,33.54,3.05Z"/></g></g></svg>