<svg xmlns="http://www.w3.org/2000/svg" viewBox="0 0 32.99 28.63"><defs><style>.cls-1{fill:#333;}</style></defs><g id="Layer_2" data-name="Layer 2"><g id="OBJECTS"><path class="cls-1" d="M28.26,1.38A9,9,0,0,0,23.51,0a9.15,9.15,0,0,0-7,3.32A9.18,9.18,0,0,0,9.48,0,9,9,0,0,0,4.73,1.38,10.67,10.67,0,0,0,1.26,15.32C3.31,19.14,11.6,25.57,15.08,28.16a2.37,2.37,0,0,0,2.83,0c3.48-2.59,11.78-9,13.82-12.84A10.67,10.67,0,0,0,28.26,1.38ZM23.51,2.45a6.5,6.5,0,0,1,3.45,1,8.2,8.2,0,0,1,2.61,10.7c-1.48,2.77-7.75,8-13,12-5.37-4-11.63-9.26-13.11-12A8.19,8.19,0,0,1,6,3.46a6.5,6.5,0,0,1,3.45-1,6.81,6.81,0,0,1,5.45,2.84l1.16,1.57a.51.51,0,0,0,.81,0l1.16-1.57A6.81,6.81,0,0,1,23.51,2.45Z"/></g></g></svg>