<svg xmlns="http://www.w3.org/2000/svg" viewBox="0 0 33 30.82"><defs><style>.cls-1{fill:#4d4d4f;}</style></defs><g id="Layer_2" data-name="Layer 2"><g id="OBJECTS"><path class="cls-1" d="M31.78,14.28,18.3.75A2.54,2.54,0,0,0,16.5,0a2.58,2.58,0,0,0-1.81.75L1.22,14.28a4.15,4.15,0,0,0-1.22,3V28.11a2.7,2.7,0,0,0,2.7,2.71h8.69a2.7,2.7,0,0,0,2.7-2.71V21.56a2.41,2.41,0,1,1,4.82,0v6.55a2.7,2.7,0,0,0,2.7,2.71h8.68A2.71,2.71,0,0,0,33,28.11V17.24A4.19,4.19,0,0,0,31.78,14.28ZM16.5,16.68a4.88,4.88,0,0,0-4.86,4.88v6.55a.25.25,0,0,1-.25.25H2.7a.25.25,0,0,1-.25-.25V17.24A1.71,1.71,0,0,1,3,16L16.43,2.49l-.35-.35h0l.49.35L30,16a1.74,1.74,0,0,1,.5,1.22V28.11a.25.25,0,0,1-.25.25H21.61a.25.25,0,0,1-.25-.25V21.56A4.88,4.88,0,0,0,16.5,16.68Z"/></g></g></svg>