<svg xmlns="http://www.w3.org/2000/svg" viewBox="0 0 55 55"><defs><style>.cls-1{fill:#333;}</style></defs><g id="Layer_2" data-name="Layer 2"><g id="OBJECTS"><path class="cls-1" d="M38.85,55H16.15A16,16,0,0,1,0,39.29V15.71A16,16,0,0,1,16.15,0h22.7A16,16,0,0,1,55,15.71V39.29A16,16,0,0,1,38.85,55ZM16.15,4a11.86,11.86,0,0,0-12,11.68V39.29A11.86,11.86,0,0,0,16.15,51h22.7a11.86,11.86,0,0,0,12-11.68V15.71A11.86,11.86,0,0,0,38.85,4Z"/><path class="cls-1" d="M27.5,42a14.84,14.84,0,0,1-15-14.62A14.71,14.71,0,0,1,27.57,12.81c4.68.14,8.56,1.67,11.22,4.44a13.9,13.9,0,0,1,3.73,10.23,14.8,14.8,0,0,1-4.45,10.27A15,15,0,0,1,27.5,42Zm-.35-24.31a9.51,9.51,0,0,0-6.54,2.62A9.69,9.69,0,0,0,27.5,37.11a9.91,9.91,0,0,0,10-9.74h0a9.21,9.21,0,0,0-2.36-6.76c-1.72-1.79-4.38-2.78-7.67-2.88Z"/><path class="cls-1" d="M46.38,12.4A3.5,3.5,0,1,1,42.88,9,3.46,3.46,0,0,1,46.38,12.4Z"/></g></g></svg>