<svg xmlns="http://www.w3.org/2000/svg" viewBox="0 0 120.56 34.11"><defs><style>.cls-1{fill:#4d4d4f;fill-rule:evenodd;}</style></defs><g id="Layer_2" data-name="Layer 2"><g id="OBJECTS"><path class="cls-1" d="M6.59.05a2.11,2.11,0,0,1,1.06,0A3.78,3.78,0,0,1,9.13.7a.89.89,0,0,1,.39.71V16.27a28.32,28.32,0,0,1-.21,4.87A6.7,6.7,0,0,1,7.64,24.7a3.93,3.93,0,0,1-1.07.88,2,2,0,0,1-1.12.32.42.42,0,0,1-.15-.35,4.42,4.42,0,0,1,.3-1.12,14.84,14.84,0,0,0,.53-3.81c0-6,0-12.07.07-18.11a3.55,3.55,0,0,0,0-.46c-.23,0-.38.2-.53.34A8.44,8.44,0,0,0,3.88,4.86a11.17,11.17,0,0,0-1,3.76,7.14,7.14,0,0,0,.17,2.52,4.9,4.9,0,0,0,.84,1.77.69.69,0,0,1,.09.76c-.22.23-.57.11-.83,0A5,5,0,0,1,1,12.07,5,5,0,0,1,0,9,9.4,9.4,0,0,1,.68,6.19,11.33,11.33,0,0,1,2.9,2.58,13.38,13.38,0,0,1,5,.82,5.88,5.88,0,0,1,6.59.05ZM39.31.29a1.27,1.27,0,0,1,1-.16,7.6,7.6,0,0,1,1.81.5,1.54,1.54,0,0,1,.47.33Q42.55,3,42.44,5l4.08.21c.24,0,.55.08.59.36a2.11,2.11,0,0,1-.2,1.24c-.12.2-.28.44-.54.42-1.32,0-2.64.07-4,.09-.08,1.89-.13,3.79-.19,5.69a39.08,39.08,0,0,0,0,5.19,5.49,5.49,0,0,0,.49,2,.94.94,0,0,0,.68.53,1.46,1.46,0,0,0,1.07-.38,4.53,4.53,0,0,0,1.06-1.47,12,12,0,0,0,.77-1.95,4.56,4.56,0,0,0,0-.9,14.1,14.1,0,0,1,.82-4.68A6.62,6.62,0,0,1,49,8.45a3.63,3.63,0,0,1,3.67-.61A3.58,3.58,0,0,1,54.52,9.5a3.33,3.33,0,0,1,.13-1.05,1.07,1.07,0,0,1,1.06-.34,3.82,3.82,0,0,1,1.44.43,1,1,0,0,1,.54.72c-.09,2.9-.2,5.8-.11,8.69a9.78,9.78,0,0,0,.25,1.87,2.17,2.17,0,0,0,.62,1.23A1,1,0,0,0,59.63,21a4.07,4.07,0,0,0,1.1-1.63.94.94,0,0,0,.13-.54,19.49,19.49,0,0,1,0-5.23,9.82,9.82,0,0,1,1.15-3.34,6.05,6.05,0,0,1,2.59-2.47,2.15,2.15,0,0,1,.65-.21,4.13,4.13,0,0,1,3,1.13,4.46,4.46,0,0,1,.52.71,7.94,7.94,0,0,1,.11-1c.18-.37.65-.39,1-.35a5.21,5.21,0,0,1,1.72.53c.32.19.32.6.3.93,0,3.27-.07,6.53-.1,9.79a24.34,24.34,0,0,0,2-3.28,16.67,16.67,0,0,0,1.62-4.37,2.75,2.75,0,0,1-.9-1.37A2.74,2.74,0,0,1,74.67,9,2.1,2.1,0,0,1,76,7.52a2.18,2.18,0,0,1,1.57.1,1.34,1.34,0,0,1,.63,1,3.74,3.74,0,0,1-.07,1.2c.87-.14,1.74-.28,2.6-.5a3.48,3.48,0,0,1,1.81-.05,1.25,1.25,0,0,1,.83.92,2.37,2.37,0,0,1,0,1.37,10,10,0,0,0-.41,1.8,14.54,14.54,0,0,0-.37,4.87,7.92,7.92,0,0,0,.53,2.13,1.51,1.51,0,0,0,.8.88A1.33,1.33,0,0,0,85,20.88a3.33,3.33,0,0,0,1-1.75,15,15,0,0,1-.15-5.21,11.35,11.35,0,0,1,1.2-3.72,5,5,0,0,1,2.09-2.11,3.56,3.56,0,0,1,3.27.06,3.73,3.73,0,0,1,1.43,1.44A2.75,2.75,0,0,1,94,8.52a1.3,1.3,0,0,1,1.19-.27A2.76,2.76,0,0,1,96.86,9c.27.3.14.71.14,1.07,0,1.9-.13,3.8-.12,5.71a16.61,16.61,0,0,0,.34,4.34,1.82,1.82,0,0,0,.58,1A1,1,0,0,0,99,21a4,4,0,0,0,1-1.36,7.64,7.64,0,0,0,.59-1.38l0-9.6A.69.69,0,0,1,101,8c.2-.13.43,0,.64,0a5.7,5.7,0,0,1,1.69.39.57.57,0,0,1,.38.51v4.74a5.06,5.06,0,0,0,0,.55c.47-1.44,1-2.88,1.51-4.29A14.3,14.3,0,0,1,106,8.34a1.14,1.14,0,0,1,1.12-.43,2.76,2.76,0,0,1,2.23,1.2,1.9,1.9,0,0,1,.24.93c0,1.65.07,3.29.19,4.93,0,.51.05,1,.13,1.53a.24.24,0,0,0,.09-.16,26.11,26.11,0,0,1,.82-3.58,32.36,32.36,0,0,1,1.35-3.84,1.58,1.58,0,0,1,.59-.84,2,2,0,0,1,1.49,0,4.42,4.42,0,0,1,1.55.77,1.53,1.53,0,0,1,.59,1.09,63,63,0,0,0-.07,7.65,12.43,12.43,0,0,0,.32,2.09,3.13,3.13,0,0,0,.48,1.09.9.9,0,0,0,1,.32,1.41,1.41,0,0,0,.7-.72,10.59,10.59,0,0,0,.71-2.28.69.69,0,0,1,.41-.56c.17-.11.35,0,.49.13s.13.43.13.65a6.52,6.52,0,0,1-1,3.54,2.88,2.88,0,0,1-2.65,1.29,3,3,0,0,1-2.34-1.39,8,8,0,0,1-1.08-3.31,44.13,44.13,0,0,1-.16-6.9.56.56,0,0,0-.2.26,19.31,19.31,0,0,0-1.43,4.05,27.63,27.63,0,0,0-.79,5.51.5.5,0,0,1-.4.48,2,2,0,0,1-1.62,0,2.42,2.42,0,0,1-1.12-1.22,5.62,5.62,0,0,1-.42-1.67c-.31-2.36-.41-4.75-.53-7.12,0-.17-.18-.06-.27-.05a17.82,17.82,0,0,0-2,6.6,31.81,31.81,0,0,0-.27,4,.7.7,0,0,1-.34.6,2.38,2.38,0,0,1-1.32.18,3.21,3.21,0,0,1-1.53-.41.7.7,0,0,1-.32-.56c0-.44-.05-.88-.08-1.32a7.85,7.85,0,0,1-.73,1.05,3.31,3.31,0,0,1-1.75,1.17,2.93,2.93,0,0,1-2.78-.85,4.27,4.27,0,0,1-1-2.21A5.53,5.53,0,0,1,92,22.63a4.47,4.47,0,0,1-1.68.49,3.36,3.36,0,0,1-1.9-.29,4.3,4.3,0,0,1-1.88-2.09A3.85,3.85,0,0,1,84.22,23a3.29,3.29,0,0,1-3.09-.93,6.18,6.18,0,0,1-1.69-3.77,9.65,9.65,0,0,1,0-2,23.17,23.17,0,0,1,.65-4.47,1,1,0,0,0,0-.24c-.8,0-1.61,0-2.42,0A20.83,20.83,0,0,1,76,15.56a34.35,34.35,0,0,1-4.13,6c0,1.78.08,3.57,0,5.36A11.78,11.78,0,0,1,71,31.09a5.07,5.07,0,0,1-2.11,2.37,5.57,5.57,0,0,1-2.33.65,4.87,4.87,0,0,1-2.85-1,3.16,3.16,0,0,1-1.07-1.81,3.74,3.74,0,0,1,.06-1.85,8.35,8.35,0,0,1,1.84-2.94c.78-.89,1.69-1.65,2.54-2.47l2-1.91c0-.49-.06-1-.08-1.48a8.12,8.12,0,0,1-1,1.19,4.69,4.69,0,0,1-3.78,1.28A3.88,3.88,0,0,1,62,21.56a5.42,5.42,0,0,1-.57-.87,4.33,4.33,0,0,1-2.34,2.36A3.08,3.08,0,0,1,56,22,4.29,4.29,0,0,1,55.07,20a5.67,5.67,0,0,1-2.13,2.49,4.55,4.55,0,0,1-2,.66,3.3,3.3,0,0,1-2.23-.54,6,6,0,0,1-2.08-3.53,8.79,8.79,0,0,1-.77,1.68,6.89,6.89,0,0,1-1,1.35A3.21,3.21,0,0,1,43,23a2.91,2.91,0,0,1-2.22-.65,4.56,4.56,0,0,1-1.13-1.55,10.27,10.27,0,0,1-.78-3.42,12,12,0,0,1-2.41,3.75,6.29,6.29,0,0,1-3,1.75,8.06,8.06,0,0,1-2.77.13,6,6,0,0,1-2.32-.63,1.57,1.57,0,0,1-.78-.88A1.71,1.71,0,0,1,28,20.34a2.12,2.12,0,0,1,.89-.79c.35-.11.66.18.94.36a3.46,3.46,0,0,0,1.49.84,1.44,1.44,0,0,0,1.55-.53,3.13,3.13,0,0,0,.42-1.55,3.89,3.89,0,0,0-1.34-2.57c-.64-.61-1.32-1.2-2-1.79C29,15.92,28,17.48,27.05,19.08a10.76,10.76,0,0,1-2.13,2.79A4.33,4.33,0,0,1,22.68,23a1.65,1.65,0,0,1-1.5-.64,4.31,4.31,0,0,1-.77-2,26.57,26.57,0,0,1-.09-3.89c0-1.64.11-3.29.17-4.93a7.51,7.51,0,0,0,0-1.06.44.44,0,0,0-.31.13,18,18,0,0,0-3.32,6.2,36.36,36.36,0,0,0-1.42,6,1.14,1.14,0,0,1-.91.22c-.38-.06-.78,0-1.16-.09a1.15,1.15,0,0,1-.71-.7,4.92,4.92,0,0,1-.3-2.05c0-3.89.05-7.79.08-11.68,0-.19.05-.43.25-.49a2.45,2.45,0,0,1,1.23.06,2.72,2.72,0,0,1,1.28.58c.17.16.1.42.11.63,0,2.16,0,4.32,0,6.48a29.22,29.22,0,0,1,2.51-5.59,8.79,8.79,0,0,1,.79-1A3,3,0,0,1,20.67,8a3.92,3.92,0,0,1,1.76.53,2.42,2.42,0,0,1,1.21,1.19,2.45,2.45,0,0,1,.07,1c-.05,1.86-.11,3.72-.17,5.58,0,.76-.07,1.52,0,2.28a3.48,3.48,0,0,0,.19,1.06c.08.19.19.41.41.45a.75.75,0,0,0,.54-.26,6.41,6.41,0,0,0,.9-1.05,38.46,38.46,0,0,0,2.11-3.4c.39-.71.8-1.42,1.16-2.15-.12-.21-.32-.38-.43-.6a3,3,0,0,1-.32-2.36,3.57,3.57,0,0,1,1.31-1.92,4,4,0,0,1,1.5-.63,2,2,0,0,1,1.53.22,1.07,1.07,0,0,1,.49.91,3.67,3.67,0,0,1-.54,1.9,9.65,9.65,0,0,1-1.11,1.59,28.72,28.72,0,0,1,3.86,3.09,4.1,4.1,0,0,1,1.21,2.31,4.52,4.52,0,0,1-.06,1.37,7.21,7.21,0,0,0,2.47-4.25c0-2.54,0-5.08.06-7.62-1.16,0-2.33,0-3.49-.06A.8.8,0,0,1,35,6.47a2.48,2.48,0,0,1,.57-1.63c.06-.1.18-.07.27-.07l3.11,0c0-1.18.07-2.35.12-3.53a1.48,1.48,0,0,1,.23-1ZM52,10.09a2.39,2.39,0,0,0-1.51,1.27,8,8,0,0,0-.75,2.58,18.48,18.48,0,0,0-.15,3.49,7,7,0,0,0,.6,2.62,2,2,0,0,0,1.07,1,1.2,1.2,0,0,0,1-.05,3.35,3.35,0,0,0,1.35-1.51,10.66,10.66,0,0,0,.9-3.57,12.25,12.25,0,0,0-.18-3.82,3.38,3.38,0,0,0-.87-1.62A1.62,1.62,0,0,0,52,10.09Zm14.46.05a3,3,0,0,0-1.75,1.66,10.25,10.25,0,0,0-.85,3.62,11.89,11.89,0,0,0,.36,4.16,2.51,2.51,0,0,0,1.22,1.57,1.3,1.3,0,0,0,1.24-.08,3.17,3.17,0,0,0,.81-.78,6.79,6.79,0,0,0,1-2.34,15.35,15.35,0,0,0,.39-3.76,8.56,8.56,0,0,0-.36-2.56,2.56,2.56,0,0,0-.89-1.32,1.37,1.37,0,0,0-1.18-.17Zm25.08.1a2.33,2.33,0,0,0-1.58,1.29,9.26,9.26,0,0,0-.86,3.56,13.57,13.57,0,0,0,.2,4.12,3.15,3.15,0,0,0,1,1.76,1.33,1.33,0,0,0,1.27.28,2.67,2.67,0,0,0,1.28-1.16,9.55,9.55,0,0,0,1.14-4,11.77,11.77,0,0,0-.18-3.79,3.15,3.15,0,0,0-.91-1.64,1.58,1.58,0,0,0-1.33-.4ZM68.15,25.46A13.83,13.83,0,0,0,65,29.74a2.76,2.76,0,0,0-.21,1.87,1.43,1.43,0,0,0,1,1,2.32,2.32,0,0,0,1.84-.19,2.72,2.72,0,0,0,1-1.4,11.89,11.89,0,0,0,.5-3.3c0-1.08,0-2.17,0-3.26a14.33,14.33,0,0,0-1.08,1Z"/></g></g></svg>