<svg xmlns="http://www.w3.org/2000/svg" viewBox="0 0 34.45 33.24"><defs><style>.cls-1{fill:#333;}</style></defs><g id="Layer_2" data-name="Layer 2"><g id="OBJECTS"><path class="cls-1" d="M17.23,19.89a9.95,9.95,0,1,0-9.95-10A10,10,0,0,0,17.23,19.89Zm0-17.44a7.49,7.49,0,1,1-7.5,7.49A7.51,7.51,0,0,1,17.23,2.45Z"/><path class="cls-1" d="M25,21.34H9.42A9.42,9.42,0,0,0,0,30.75v1.33a1.15,1.15,0,0,0,1.2,1.16A1.21,1.21,0,0,0,2.45,32V30.75a7,7,0,0,1,7-7H25a7,7,0,0,1,7,7V32a1.21,1.21,0,0,0,1.25,1.23h0a1.15,1.15,0,0,0,1.2-1.17V30.75A9.42,9.42,0,0,0,25,21.34Z"/></g></g></svg>