<svg xmlns="http://www.w3.org/2000/svg" viewBox="0 0 36.55 31.54"><defs><style>.cls-1{fill:#333;}</style></defs><g id="Layer_2" data-name="Layer 2"><g id="OBJECTS"><path class="cls-1" d="M13.53,31.54a1.26,1.26,0,0,1-.38-.06,1.2,1.2,0,0,1-.82-1.14l0-18a.21.21,0,0,0-.07-.15L.42,2.11A1.22,1.22,0,0,1,.07.78,1.21,1.21,0,0,1,1.2,0H35.35a1.19,1.19,0,0,1,1,1.92L14.49,31.06A1.19,1.19,0,0,1,13.53,31.54ZM30.8,4.75l-.09,0L14.82,12.43a.21.21,0,0,0-.11.19V26.15a.21.21,0,0,0,.14.19h.06a.18.18,0,0,0,.16-.08L31,5.07a.21.21,0,0,0,0-.25A.18.18,0,0,0,30.8,4.75ZM5,2.4a.2.2,0,0,0-.13.35l8.74,7.48a.24.24,0,0,0,.13,0l.09,0L29.32,2.78a.2.2,0,0,0,.11-.23.2.2,0,0,0-.2-.15Z"/></g></g></svg>