<svg xmlns="http://www.w3.org/2000/svg" viewBox="0 0 29.77 6.19"><defs><style>.cls-1{fill:#333;}</style></defs><g id="Layer_2" data-name="Layer 2"><g id="OBJECTS"><path class="cls-1" d="M6.45,3.08a3,3,0,0,1-3.2,3.11A3,3,0,0,1,0,3.08,3,3,0,0,1,3.25,0,2.93,2.93,0,0,1,6.45,3.08Z"/><path class="cls-1" d="M18.11,3.08a3,3,0,0,1-3.2,3.11,3,3,0,0,1-3.25-3.11A3,3,0,0,1,14.91,0,2.93,2.93,0,0,1,18.11,3.08Z"/><path class="cls-1" d="M29.77,3.08a3,3,0,0,1-3.2,3.11,3,3,0,0,1-3.25-3.11A3,3,0,0,1,26.57,0,2.93,2.93,0,0,1,29.77,3.08Z"/></g></g></svg>